<?xml version="1.0" standalone="no"?>
<!DOCTYPE svg PUBLIC "-//W3C//DTD SVG 20010904//EN"
 "http://www.w3.org/TR/2001/REC-SVG-20010904/DTD/svg10.dtd">
<svg version="1.0" xmlns="http://www.w3.org/2000/svg"
 width="2000.000000pt" height="2000.000000pt" viewBox="0 0 2000.000000 2000.000000"
 preserveAspectRatio="xMidYMid meet">
<metadata>
Created by potrace 1.16, written by Peter Selinger 2001-2019
</metadata>
<g transform="translate(0.000000,2000.000000) scale(0.100000,-0.100000)"
fill="#000000" stroke="none">
<path d="M11995 18817 c-22 -8 -202 -107 -400 -222 -198 -114 -418 -242 -490
-283 -71 -41 -623 -359 -1225 -707 -602 -348 -1635 -944 -2295 -1325 -660
-381 -1240 -716 -1290 -745 -49 -29 -486 -281 -970 -560 -484 -279 -936 -540
-1005 -580 -69 -40 -505 -292 -970 -560 -465 -268 -860 -497 -878 -509 -47
-30 -120 -132 -137 -191 -13 -44 -15 -563 -13 -4025 l3 -3975 26 -56 c33 -69
89 -133 143 -162 35 -19 57 -22 146 -22 94 0 110 3 155 27 28 14 811 465 1740
1002 l1690 976 5 -138 c4 -123 8 -143 32 -192 15 -30 42 -69 60 -87 29 -27
263 -164 1134 -663 241 -138 324 -171 482 -195 227 -35 490 -1 657 82 116 59
1475 849 1524 886 62 48 116 121 132 179 6 23 9 102 7 187 -5 258 -9 261 -570
585 -818 472 -768 439 -816 536 -25 52 -27 63 -27 194 l0 138 1685 974 c927
535 1684 977 1683 981 -1 8 -83 185 -88 191 -1 1 -1810 -1042 -4019 -2318
-2894 -1672 -4025 -2320 -4046 -2320 -43 0 -207 95 -226 131 -12 25 -14 425
-12 3131 l3 3103 22 45 c12 25 37 59 55 77 18 17 1844 1077 4058 2356 2214
1278 4125 2382 4247 2453 l223 129 0 601 c0 566 -1 604 -19 656 -33 95 -86
164 -156 201 -50 26 -199 34 -260 14z"/>
<path d="M16287 12994 c-14 -15 -6 -90 13 -121 l20 -33 -23 1 c-12 0 -65 13
-117 28 -52 15 -101 26 -108 23 -22 -8 -25 -52 -9 -118 14 -56 61 -143 86
-158 4 -3 2 -29 -6 -58 -18 -65 -12 -193 13 -291 9 -37 19 -66 21 -63 2 2 10
68 18 147 7 79 18 156 24 171 l10 26 53 -20 c81 -31 189 -34 361 -9 81 11 177
21 213 21 56 0 68 -4 89 -25 14 -13 25 -28 25 -34 0 -5 13 -89 30 -186 42
-253 57 -274 125 -179 49 69 58 76 103 83 33 6 37 10 45 46 9 45 4 220 -8 248
-6 15 -1 17 39 17 37 0 46 3 46 18 0 29 -29 62 -56 62 -32 0 -30 10 7 41 36
29 33 44 -12 54 -20 5 -38 1 -55 -10 -14 -9 -27 -15 -28 -13 -1 2 -14 24 -29
50 -78 136 -272 220 -572 248 -120 11 -252 27 -290 36 -11 3 -24 2 -28 -2z"/>
<path d="M9355 11729 c-258 -149 -618 -357 -800 -462 -181 -105 -458 -265
-615 -355 -157 -91 -377 -218 -490 -283 -1276 -734 -1557 -899 -1585 -934
l-30 -37 0 -833 0 -833 31 -39 c37 -45 210 -148 264 -157 21 -3 57 0 81 8 24
7 924 522 1999 1143 l1955 1129 2 870 3 869 -157 90 c-86 50 -164 91 -172 93
-9 1 -227 -120 -486 -269z m-58 -823 c25 -22 28 -31 27 -83 -1 -71 -31 -140
-88 -198 -29 -29 -343 -215 -1077 -638 -900 -519 -1041 -597 -1076 -597 -76 0
-103 76 -63 183 44 117 18 100 1146 751 567 326 1039 596 1050 599 38 10 53 7
81 -17z m-209 -821 c7 -15 12 -74 12 -135 0 -97 -2 -110 -19 -119 -10 -6 -21
-7 -25 -4 -3 3 -6 48 -6 99 0 101 -11 123 -42 84 -15 -18 -18 -40 -18 -124 0
-101 -7 -126 -37 -126 -10 0 -13 32 -13 138 0 122 2 141 18 155 10 10 21 15
24 12 2 -3 15 6 28 20 31 33 63 32 78 0z m-300 -312 c-3 -189 -9 -215 -60
-263 -40 -37 -98 -21 -98 27 0 26 31 48 47 32 14 -14 39 -2 52 27 18 39 13 49
-12 26 -54 -51 -87 -13 -87 101 0 83 16 136 52 174 12 13 29 23 39 23 9 0 22
7 29 15 7 8 19 15 27 15 12 0 14 -27 11 -177z m-224 22 c21 -22 30 -77 22
-142 -11 -92 -58 -163 -107 -163 -40 0 -53 31 -51 120 1 84 19 139 59 176 30
28 55 31 77 9z m-284 -190 c0 -85 2 -155 5 -155 3 0 23 11 45 25 52 33 60 32
60 -9 0 -32 -5 -37 -67 -73 -38 -21 -71 -39 -75 -41 -5 -2 -8 84 -8 190 0 188
4 218 32 218 4 0 8 -70 8 -155z m-160 -72 c0 -19 -10 -36 -32 -55 l-33 -27 -3
-108 c-4 -100 -10 -122 -34 -123 -5 0 -8 65 -8 145 0 134 1 145 20 155 11 6
20 7 20 3 0 -4 9 3 20 15 29 31 50 28 50 -5z m-186 -99 c21 -20 28 -52 24
-100 -3 -35 -8 -41 -55 -69 -52 -30 -64 -47 -42 -61 6 -4 25 7 41 25 35 37 63
42 52 9 -20 -67 -59 -108 -101 -108 -33 0 -47 35 -47 115 0 84 15 134 54 175
31 34 51 37 74 14z m-354 -219 c0 -172 -11 -222 -58 -274 -42 -46 -70 -57 -96
-38 -25 18 -35 81 -36 215 0 114 9 152 35 152 12 0 15 -22 15 -129 0 -71 3
-136 6 -145 9 -22 37 -20 60 5 17 18 19 40 22 172 3 149 10 177 38 177 11 0
14 -27 14 -135z m174 109 c13 -34 6 -54 -21 -59 -69 -15 -82 -43 -21 -47 36
-3 44 -7 52 -30 31 -88 -102 -228 -134 -142 -13 33 2 54 39 54 26 0 51 16 51
31 0 5 -19 9 -42 11 -41 3 -43 5 -46 37 -6 55 7 97 37 130 32 34 75 41 85 15z"/>
<path d="M10957 11936 c-101 -37 -194 -158 -231 -303 -30 -114 -18 -212 32
-265 l26 -28 -30 -270 c-17 -148 -28 -270 -26 -270 2 0 91 50 198 112 166 96
193 114 189 132 -2 12 -16 117 -30 234 l-27 213 33 77 c43 103 52 225 21 294
-31 72 -87 98 -155 74z"/>
<path d="M17060 11775 c0 -58 3 -105 7 -105 3 0 21 11 39 25 23 18 38 41 49
77 21 71 20 78 -13 78 -16 0 -37 7 -48 15 -10 8 -22 15 -26 15 -5 0 -8 -47 -8
-105z"/>
<path d="M16367 11439 c-86 -10 -194 -67 -256 -135 -64 -69 -240 -335 -401
-604 l-123 -204 29 -56 c60 -114 209 -233 321 -255 28 -6 34 -2 66 40 41 53
39 38 57 505 6 151 17 310 25 353 33 191 131 302 302 340 70 16 58 26 -20 16z"/>
<path d="M17276 11379 c-58 -46 -113 -192 -136 -360 -6 -46 -50 -237 -97 -423
l-87 -339 48 -43 c100 -91 258 -145 379 -130 71 9 68 3 137 241 89 307 120
459 127 626 7 172 -3 224 -56 306 -44 69 -106 107 -208 128 -85 18 -76 19
-107 -6z"/>
<path d="M12106 10742 c-3 -6 2094 -1226 2217 -1289 4 -2 7 4 7 14 0 13 -36
40 -122 90 -203 118 -1782 1030 -1931 1114 -133 77 -160 88 -171 71z"/>
<path d="M16045 9153 c98 -384 83 -797 -38 -1069 l-36 -79 -10 -300 c-19 -531
-17 -565 102 -1725 l52 -505 29 -14 c64 -30 278 -8 302 31 4 6 29 256 57 557
42 461 50 583 50 781 1 177 -3 253 -15 309 -14 69 -14 84 7 270 13 108 47 426
76 706 29 281 56 514 61 520 4 5 8 -6 8 -26 0 -40 86 -938 125 -1304 33 -308
272 -2034 311 -2242 8 -44 47 -58 164 -58 65 0 106 5 131 16 l35 16 12 434 c7
239 19 623 28 853 16 459 12 541 -31 726 l-25 105 17 992 c9 546 14 995 11
998 -3 4 -23 -5 -45 -19 -50 -33 -167 -71 -284 -93 -148 -28 -502 -24 -674 6
-144 25 -317 77 -384 116 l-43 25 7 -27z"/>
<path d="M15317 9000 c-60 -47 -80 -145 -53 -268 42 -198 188 -349 274 -285
42 31 64 78 69 146 5 57 2 66 -30 120 -19 31 -42 88 -52 125 -27 110 -29 114
-66 144 -50 40 -105 47 -142 18z"/>
<path d="M16430 5409 c0 -31 -76 -61 -164 -62 -98 -2 -126 7 -126 40 0 24 -6
20 -77 -48 -87 -83 -145 -116 -408 -234 -93 -41 -176 -82 -187 -91 -27 -25
-24 -79 7 -110 83 -82 326 -94 490 -22 182 79 174 77 305 82 200 8 250 33 250
125 0 49 -39 246 -61 309 -12 36 -29 43 -29 11z"/>
<path d="M17438 4958 c-6 -41 -62 -63 -158 -63 -99 1 -130 13 -131 53 0 31 7
44 -94 -173 -55 -117 -57 -121 -180 -240 -210 -207 -232 -270 -112 -332 69
-35 183 -43 259 -19 91 30 196 87 232 126 20 22 47 73 67 126 28 75 44 101
102 163 38 41 73 86 79 100 12 33 3 124 -23 206 -21 69 -36 88 -41 53z"/>
</g>
</svg>
